<?xml version="1.0" encoding="utf-8"?>
<!-- Generator: Adobe Illustrator 16.0.4, SVG Export Plug-In . SVG Version: 6.00 Build 0)  -->
<!DOCTYPE svg PUBLIC "-//W3C//DTD SVG 1.1//EN" "http://www.w3.org/Graphics/SVG/1.1/DTD/svg11.dtd">
<svg version="1.1" id="Layer_1" xmlns="http://www.w3.org/2000/svg" xmlns:xlink="http://www.w3.org/1999/xlink" x="0px" y="0px"
	 width="56.693px" height="56.693px" viewBox="0 0 56.693 56.693" enable-background="new 0 0 56.693 56.693" xml:space="preserve">
<path d="M40.952,42.347h-9.32c-6.631,0-7.688-2.934-7.688-5.654c0-1.291,0.08-3.42,0.16-6.027h15.572
	c2.33,0,6.777-0.955,6.777-5.218c0-4.26-2.053-7.053-4.803-7.053H24.298C24.28,12.247,23.88,6.122,17.875,6.122
	c-2.483,0-4.498,1.02-5.348,3.553c-1.115,3.328-0.82,7.225-0.806,10.69c0.004,0.658,0.007,1.32,0.009,1.98
	c0.008,2.27,0.054,4.553,0.064,6.834c0.006,2.455,0.009,4.91,0.009,7.363c0,13.746,12.494,17.641,14.89,17.641
	s11.783,0.223,13.479,0.223s6.562-0.449,6.562-5.371S43.282,42.347,40.952,42.347z"/>
</svg>
