<?xml version="1.0" encoding="utf-8"?>
<!-- Generator: Adobe Illustrator 16.0.4, SVG Export Plug-In . SVG Version: 6.00 Build 0)  -->
<!DOCTYPE svg PUBLIC "-//W3C//DTD SVG 1.1//EN" "http://www.w3.org/Graphics/SVG/1.1/DTD/svg11.dtd">
<svg version="1.1" id="Layer_1" xmlns="http://www.w3.org/2000/svg" xmlns:xlink="http://www.w3.org/1999/xlink" x="0px" y="0px"
	 width="56.693px" height="56.693px" viewBox="0 0 56.693 56.693" enable-background="new 0 0 56.693 56.693" xml:space="preserve">
<path d="M51.497,34.785c0.354-1.624,0.539-3.303,0.539-5.029c0-12.938-10.488-23.427-23.428-23.427
	c-1.365,0-2.703,0.119-4.008,0.342c-2.092-1.32-4.571-2.087-7.227-2.087c-7.505,0-13.588,6.084-13.588,13.59
	c0,2.507,0.683,4.854,1.867,6.871c-0.312,1.521-0.474,3.098-0.474,4.711c0,12.941,10.488,23.43,23.429,23.43
	c1.467,0,2.898-0.135,4.289-0.392c1.914,1.027,4.1,1.611,6.424,1.611c7.504,0,13.586-6.083,13.586-13.587
	C52.907,38.65,52.399,36.604,51.497,34.785z M40.624,40.953c-1.082,1.533-2.684,2.749-4.76,3.611
	c-2.055,0.854-4.518,1.288-7.32,1.288c-3.365,0-6.188-0.593-8.389-1.761c-1.575-0.849-2.872-1.999-3.858-3.424
	c-0.994-1.433-1.498-2.857-1.498-4.232c0-0.857,0.328-1.602,0.976-2.211c0.642-0.604,1.464-0.91,2.446-0.91
	c0.805,0,1.5,0.24,2.064,0.716c0.539,0.459,1,1.136,1.373,2.009c0.416,0.953,0.867,1.756,1.346,2.385
	c0.461,0.61,1.121,1.121,1.965,1.521c0.85,0.401,1.996,0.606,3.402,0.606c1.938,0,3.527-0.413,4.721-1.229
	c1.168-0.796,1.732-1.753,1.732-2.923c0-0.925-0.295-1.65-0.902-2.223c-0.641-0.597-1.48-1.058-2.502-1.379
	c-1.064-0.331-2.51-0.691-4.297-1.066c-2.434-0.52-4.498-1.138-6.141-1.835c-1.682-0.716-3.036-1.708-4.026-2.946
	c-1.005-1.261-1.516-2.837-1.516-4.695c0-1.77,0.535-3.367,1.591-4.741c1.047-1.367,2.578-2.431,4.548-3.157
	c1.943-0.719,4.256-1.084,6.875-1.084c2.092,0,3.93,0.244,5.467,0.719c1.545,0.48,2.846,1.13,3.869,1.929
	c1.029,0.806,1.797,1.665,2.279,2.561c0.484,0.902,0.73,1.802,0.73,2.671c0,0.838-0.322,1.599-0.961,2.264
	c-0.643,0.666-1.451,1.004-2.406,1.004c-0.867,0-1.547-0.213-2.018-0.627c-0.438-0.391-0.893-0.995-1.398-1.864
	c-0.584-1.108-1.291-1.984-2.102-2.601c-0.789-0.601-2.105-0.902-3.914-0.902c-1.678,0-3.045,0.336-4.059,1.003
	c-0.977,0.639-1.453,1.374-1.453,2.245c0,0.535,0.154,0.979,0.471,1.363c0.332,0.409,0.803,0.763,1.395,1.062
	c0.615,0.311,1.252,0.556,1.887,0.73c0.65,0.182,1.742,0.449,3.24,0.795c1.896,0.408,3.641,0.863,5.18,1.357
	c1.562,0.5,2.908,1.113,4.01,1.83c1.121,0.73,2.01,1.667,2.641,2.789c0.633,1.125,0.953,2.513,0.953,4.127
	C42.265,37.654,41.712,39.416,40.624,40.953z"/>
</svg>
