<?xml version="1.0" encoding="utf-8"?>
<!-- Generator: Adobe Illustrator 16.0.4, SVG Export Plug-In . SVG Version: 6.00 Build 0)  -->
<!DOCTYPE svg PUBLIC "-//W3C//DTD SVG 1.1//EN" "http://www.w3.org/Graphics/SVG/1.1/DTD/svg11.dtd">
<svg version="1.1" id="Layer_1" xmlns="http://www.w3.org/2000/svg" xmlns:xlink="http://www.w3.org/1999/xlink" x="0px" y="0px"
	 width="56.693px" height="56.693px" viewBox="0 0 56.693 56.693" enable-background="new 0 0 56.693 56.693" xml:space="preserve">
<g>
	<g>
		<path d="M38.5,7.463c-3.215-1.459-6.629-2.209-10.156-2.209c-2.936,0-5.82,0.568-8.598,1.607
			c0.653,0.592,17.913,16.26,18.754,17.024C38.5,22.753,38.5,7.811,38.5,7.463L38.5,7.463z"/>
	</g>
	<g>
		<path d="M15.67,50.915c0-0.963,0-20.041,0-21.174c-0.823,0.746-9.891,8.988-10.174,9.246C7.47,43.937,11.072,48.132,15.67,50.915
			L15.67,50.915z"/>
	</g>
	<g>
		<path d="M3.722,29.884c0,2.111,0.317,4.264,0.896,6.396c0.664-0.607,21.397-19.446,21.825-19.836
			c-0.414-0.375-9.037-8.201-9.319-8.459C8.857,12.229,3.722,20.596,3.722,29.884L3.722,29.884z"/>
	</g>
	<g>
		<path d="M18.257,40.585c0,0.512,0,11.398,0,11.75c2.502,1.125,5.124,1.82,7.819,2.07h4.516c8.508-0.793,16.1-6.039,19.875-13.82
			C49.578,40.585,18.787,40.585,18.257,40.585L18.257,40.585z"/>
	</g>
	<g>
		<path d="M41.096,8.875c0,0.977,0,28.592,0,29.116c0.504,0,10.09,0,10.479,0c0.916-2.627,1.396-5.352,1.396-8.107
			C52.971,21.323,48.422,13.334,41.096,8.875L41.096,8.875z"/>
	</g>
</g>
</svg>
