<?xml version="1.0" encoding="utf-8"?>
<!-- Generator: Adobe Illustrator 16.0.4, SVG Export Plug-In . SVG Version: 6.00 Build 0)  -->
<!DOCTYPE svg PUBLIC "-//W3C//DTD SVG 1.1//EN" "http://www.w3.org/Graphics/SVG/1.1/DTD/svg11.dtd">
<svg version="1.1" id="Layer_1" xmlns="http://www.w3.org/2000/svg" xmlns:xlink="http://www.w3.org/1999/xlink" x="0px" y="0px"
	 width="56.693px" height="56.693px" viewBox="0 0 56.693 56.693" enable-background="new 0 0 56.693 56.693" xml:space="preserve">
<g>
	<rect x="14.284" y="27.181" width="1.756" height="4.75"/>
	<rect x="29.854" y="27.14" width="1.758" height="4.75"/>
	<path d="M28.347,5.157c-13.6,0-24.625,11.027-24.625,24.625c0,13.6,11.025,24.623,24.625,24.623
		c13.6,0,24.625-11.023,24.625-24.623C52.972,16.184,41.946,5.157,28.347,5.157z M19.407,34.739h-8.551V24.292h5.184v-4.565h3.367
		V34.739z M24.63,34.778h-3.486V24.271h3.486V34.778z M24.63,22.763h-3.486v-2.85h3.486V22.763z M34.979,39.345h-1.488h-7.123
		v-2.932h5.244v-1.635h-5.186V24.333h8.553V39.345z M45.306,39.345h-1.486h-7.125v-2.932h5.244v-1.635h-5.184V24.333h8.551V39.345z"
		/>
	<rect x="40.183" y="27.14" width="1.756" height="4.75"/>
</g>
</svg>
