<?xml version="1.0" encoding="utf-8"?>
<!-- Generator: Adobe Illustrator 16.0.4, SVG Export Plug-In . SVG Version: 6.00 Build 0)  -->
<!DOCTYPE svg PUBLIC "-//W3C//DTD SVG 1.1//EN" "http://www.w3.org/Graphics/SVG/1.1/DTD/svg11.dtd">
<svg version="1.1" id="Layer_1" xmlns="http://www.w3.org/2000/svg" xmlns:xlink="http://www.w3.org/1999/xlink" x="0px" y="0px"
	 width="56.693px" height="56.693px" viewBox="0 0 56.693 56.693" enable-background="new 0 0 56.693 56.693" xml:space="preserve">
<path d="M28.348,5.157c-13.6,0-24.625,11.023-24.625,24.624c0,13.6,11.025,24.625,24.625,24.625
	c13.598,0,24.623-11.025,24.623-24.625C52.971,16.18,41.945,5.157,28.348,5.157z M28.346,12.256c2.469,0,4.857,0.523,7.109,1.547
	c0,0.244,0,10.702,0,11.495c-0.59-0.535-12.672-11.504-13.129-11.917C24.271,12.653,26.291,12.256,28.346,12.256z M11.109,29.495
	c0-6.498,3.595-12.356,9.383-15.329c0.195,0.182,6.232,5.658,6.523,5.922c-0.301,0.273-14.813,13.461-15.279,13.885
	C11.332,32.481,11.109,30.974,11.109,29.495z M19.473,44.22c-3.219-1.949-5.74-4.885-7.122-8.352
	c0.199-0.18,6.546-5.949,7.122-6.473C19.473,30.19,19.473,43.542,19.473,44.22z M29.918,46.661h-3.162
	c-1.885-0.178-3.719-0.662-5.473-1.447c0-0.248,0-7.869,0-8.229c0.371,0,21.926,0,22.547,0
	C41.188,42.435,35.873,46.104,29.918,46.661z M44.605,35.171c-0.271,0-6.98,0-7.336,0c0-0.369,0-19.698,0-20.381
	c5.129,3.121,8.314,8.715,8.314,14.706C45.584,31.427,45.246,33.333,44.605,35.171z"/>
</svg>
