<?xml version="1.0" encoding="utf-8"?>
<!-- Generator: Adobe Illustrator 16.0.4, SVG Export Plug-In . SVG Version: 6.00 Build 0)  -->
<!DOCTYPE svg PUBLIC "-//W3C//DTD SVG 1.1//EN" "http://www.w3.org/Graphics/SVG/1.1/DTD/svg11.dtd">
<svg version="1.1" id="Layer_1" xmlns="http://www.w3.org/2000/svg" xmlns:xlink="http://www.w3.org/1999/xlink" x="0px" y="0px"
	 width="56.693px" height="56.693px" viewBox="0 0 56.693 56.693" enable-background="new 0 0 56.693 56.693" xml:space="preserve">
<g>
	<ellipse cx="35.186" cy="21.049" rx="13.304" ry="10.221"/>
	<path d="M44.058,36.954c-0.096,0.041-0.193,0.076-0.289,0.113c-0.219,0.086-0.438,0.17-0.66,0.248
		c-0.174,0.061-0.35,0.117-0.525,0.178c-0.148,0.045-0.295,0.096-0.443,0.143c-0.205,0.061-0.414,0.119-0.621,0.176
		c-0.125,0.033-0.248,0.068-0.373,0.1c-0.223,0.061-0.447,0.111-0.674,0.164c-0.113,0.023-0.227,0.051-0.34,0.072
		c-0.236,0.049-0.473,0.098-0.711,0.139c-0.109,0.02-0.221,0.037-0.33,0.057c-0.242,0.041-0.484,0.078-0.729,0.109
		c-0.115,0.018-0.23,0.029-0.346,0.043c-0.24,0.029-0.482,0.057-0.727,0.076c-0.135,0.016-0.27,0.02-0.404,0.031
		c-0.225,0.016-0.451,0.033-0.678,0.043c-0.256,0.01-0.514,0.016-0.77,0.018c-0.104,0.002-0.205,0.008-0.311,0.008
		c-0.004,0-0.01,0-0.014,0c-0.008,0-0.016,0-0.023,0c-0.516,0-1.025-0.02-1.533-0.051c-0.041-0.006-0.084-0.006-0.125-0.01
		c-1.605-0.107-3.16-0.365-4.643-0.766l-9.906,5.943l1.065-10.656c-3.504-3.148-5.656-7.385-5.656-12.051
		c0-0.012,0.002-0.023,0.002-0.033c0-0.016-0.002-0.025-0.002-0.037c0-5.078,2.556-9.627,6.602-12.846h0.084
		c1.48-1.16,3.166-2.137,5-2.893C13.492,6.465,3.725,16.979,3.725,29.78c0,13.6,11.025,24.625,24.625,24.625
		c13.506,0,24.469-10.877,24.617-24.35C50.872,33.036,47.774,35.452,44.058,36.954z"/>
</g>
</svg>
