<?xml version="1.0" encoding="utf-8"?>
<!-- Generator: Adobe Illustrator 16.0.4, SVG Export Plug-In . SVG Version: 6.00 Build 0)  -->
<!DOCTYPE svg PUBLIC "-//W3C//DTD SVG 1.1//EN" "http://www.w3.org/Graphics/SVG/1.1/DTD/svg11.dtd">
<svg version="1.1" id="Layer_1" xmlns="http://www.w3.org/2000/svg" xmlns:xlink="http://www.w3.org/1999/xlink" x="0px" y="0px"
	 width="56.693px" height="56.693px" viewBox="0 0 56.693 56.693" enable-background="new 0 0 56.693 56.693" xml:space="preserve">
<g>
	<path d="M19.577,39.532c1.35,0,2.523-0.926,2.559-2.027c0.037-1.086-1.057-2.061-2.389-2.129l-1.42-0.076
		c-3.729-0.191-6.766-3.311-6.766-6.943c0-3.699,3.092-6.711,6.891-6.711h9.322c3.801,0,6.891,3.092,6.891,6.893v8.58
		c0,1.332,1.084,2.414,2.418,2.414h1.127c1.332,0,2.418-1.082,2.418-2.414V8.44c-3.617-2.084-7.809-3.283-12.281-3.283
		c-13.6,0-24.625,11.023-24.625,24.624c0,3.467,0.719,6.762,2.01,9.752H19.577z"/>
	<path d="M45.099,11.737v25.381c0,3.797-3.09,6.887-6.889,6.887h-1.127c-3.799,0-6.891-3.09-6.891-6.887v-8.58
		c0-1.334-1.027-2.475-2.361-2.475h-9.322c-1.334,0-2.475,1.059-2.475,2.293c0,1.273,1.158,2.41,2.527,2.479l1.42,0.076
		c3.77,0.193,6.742,3.219,6.625,6.74c-0.119,3.504-3.271,6.354-7.029,6.354H8.251c4.463,6.291,11.797,10.4,20.096,10.4
		c13.6,0,24.625-11.025,24.625-24.625C52.972,22.651,49.938,16.235,45.099,11.737z"/>
</g>
</svg>
