<?xml version="1.0" encoding="utf-8"?>
<!-- Generator: Adobe Illustrator 16.0.4, SVG Export Plug-In . SVG Version: 6.00 Build 0)  -->
<!DOCTYPE svg PUBLIC "-//W3C//DTD SVG 1.1//EN" "http://www.w3.org/Graphics/SVG/1.1/DTD/svg11.dtd">
<svg version="1.1" id="Layer_1" xmlns="http://www.w3.org/2000/svg" xmlns:xlink="http://www.w3.org/1999/xlink" x="0px" y="0px"
	 width="56.693px" height="56.693px" viewBox="0 0 56.693 56.693" enable-background="new 0 0 56.693 56.693" xml:space="preserve">
<path d="M28.347,5.157c-13.6,0-24.625,11.023-24.625,24.624c0,13.6,11.025,24.625,24.625,24.625c13.6,0,24.625-11.025,24.625-24.625
	C52.972,16.18,41.946,5.157,28.347,5.157z M10.59,29.733c0-2.57,0.553-5.014,1.539-7.225l8.469,23.205
	C14.674,42.841,10.59,36.763,10.59,29.733z M28.347,47.491c-1.744,0-3.424-0.254-5.016-0.723l5.328-15.479l5.459,14.953
	c0.035,0.086,0.08,0.166,0.125,0.242C32.399,47.138,30.415,47.491,28.347,47.491z M30.794,21.411c1.07-0.059,2.031-0.17,2.031-0.17
	c0.957-0.113,0.842-1.516-0.111-1.465c0,0-2.877,0.229-4.734,0.229c-1.744,0-4.674-0.229-4.674-0.229
	c-0.959-0.051-1.072,1.408-0.115,1.465c0,0,0.906,0.111,1.863,0.17l2.766,7.579l-3.885,11.654l-6.467-19.233
	c1.071-0.059,2.031-0.17,2.031-0.17c0.958-0.113,0.844-1.516-0.11-1.465c0,0-2.876,0.229-4.734,0.229
	c-0.333,0-0.725-0.01-1.142-0.021c3.174-4.822,8.631-8.006,14.834-8.006c4.623,0,8.834,1.77,11.992,4.664
	c-0.076-0.006-0.154-0.016-0.229-0.016c-1.748,0-2.982,1.52-2.982,3.15c0,1.465,0.844,2.702,1.742,4.165
	c0.674,1.184,1.465,2.705,1.465,4.898c0,1.52-0.453,3.432-1.352,5.74l-1.771,5.916L30.794,21.411z M37.276,45.081l5.422-15.68
	c1.014-2.533,1.352-4.559,1.352-6.359c0-0.652-0.043-1.26-0.121-1.829c1.385,2.534,2.174,5.432,2.174,8.52
	C46.103,36.288,42.552,42.005,37.276,45.081z"/>
</svg>
