<?xml version="1.0" encoding="utf-8"?>
<!-- Generator: Adobe Illustrator 16.0.4, SVG Export Plug-In . SVG Version: 6.00 Build 0)  -->
<!DOCTYPE svg PUBLIC "-//W3C//DTD SVG 1.1//EN" "http://www.w3.org/Graphics/SVG/1.1/DTD/svg11.dtd">
<svg version="1.1" id="Layer_1" xmlns="http://www.w3.org/2000/svg" xmlns:xlink="http://www.w3.org/1999/xlink" x="0px" y="0px"
	 width="56.693px" height="56.693px" viewBox="0 0 56.693 56.693" enable-background="new 0 0 56.693 56.693" xml:space="preserve">
<g>
	<path d="M39.017,24.388c-1.105,5.01-5.221,8.25-10.486,8.25h-2.719l-1.137,5.164l-0.346,1.574h-1.611h-2.023l-0.573,2.543h6.059
		l1.482-6.738h4.328c4.141,0,7.604-2.471,8.529-6.674c0.539-2.443-0.127-4.199-1.311-5.332
		C39.173,23.562,39.11,23.966,39.017,24.388z"/>
	<path d="M22.718,37.37l1.484-6.736h4.328c0.051,0,0.102-0.004,0.152-0.006c2.461-0.037,4.67-0.951,6.236-2.586
		c1.027-1.068,1.777-2.443,2.141-4.086c0.158-0.721,0.211-1.381,0.178-1.984c-0.047-0.866-0.273-1.612-0.631-2.243
		c-1.029-1.832-3.137-2.693-5.047-2.693H21.235L16.66,37.37h2.431h2.055H22.718z M26.271,21.583l0.096-0.407h2.967
		c0.512,0,0.963,0.148,1.318,0.407c0.676,0.486,1.006,1.363,0.721,2.373c-0.162,0.676-0.547,1.289-1.055,1.768
		c-0.184,0.172-0.385,0.324-0.598,0.459c-0.551,0.348-1.18,0.559-1.811,0.559h-2.842L26.271,21.583z"/>
	<path d="M29.425,23.489l0.008-0.035l0.01-0.039c0.033-0.117,0.031-0.188,0.027-0.217c-0.021-0.008-0.064-0.018-0.137-0.018h-1.377
		l-0.363,1.557h0.316C28.534,24.737,29.271,24.13,29.425,23.489z"/>
	<path d="M28.347,5.157c-13.6,0-24.625,11.023-24.625,24.624c0,13.6,11.024,24.625,24.625,24.625
		c13.6,0,24.625-11.025,24.625-24.625C52.972,16.18,41.946,5.157,28.347,5.157z M42.478,28.938
		c-1.104,5.01-5.221,8.246-10.486,8.246h-2.717l-1.137,5.164l-0.348,1.574h-1.609h-6.059h-2.505l0.55-2.443l0.474-2.104h-1.98
		h-2.504l0.55-2.443l4.575-20.338l0.352-1.564h1.603H31.56c2.459,0,4.77,1.049,6.182,2.805c0.521,0.65,1.055,1.566,1.326,2.773
		c0.828,0.457,1.557,1.057,2.133,1.774C42.177,23.597,43.188,25.718,42.478,28.938z"/>
</g>
</svg>
