<?xml version="1.0" encoding="utf-8"?>
<!-- Generator: Adobe Illustrator 16.0.4, SVG Export Plug-In . SVG Version: 6.00 Build 0)  -->
<!DOCTYPE svg PUBLIC "-//W3C//DTD SVG 1.1//EN" "http://www.w3.org/Graphics/SVG/1.1/DTD/svg11.dtd">
<svg version="1.1" id="Layer_1" xmlns="http://www.w3.org/2000/svg" xmlns:xlink="http://www.w3.org/1999/xlink" x="0px" y="0px"
	 width="56.693px" height="56.693px" viewBox="0 0 56.693 56.693" enable-background="new 0 0 56.693 56.693" xml:space="preserve">
<g>
	<polygon points="28.748,20.042 18.21,26.546 28.748,33.052 39.286,26.546 	"/>
	<path d="M28.348,5.158c-13.6,0-24.625,11.023-24.625,24.623c0,13.6,11.025,24.625,24.625,24.625
		c13.598,0,24.623-11.025,24.623-24.625C52.971,16.181,41.945,5.158,28.348,5.158z M39.243,40.694l-10.473,6.277l-10.474-6.277
		v-2.299l3.139,2.051l7.335-6.084l7.334,6.084l3.139-2.051V40.694z M36.062,39.149l-7.313-6.098l-7.312,6.098l-10.452-6.818
		l7.227-5.785l-7.227-5.785l10.452-6.817l7.312,6.099l7.313-6.099l10.451,6.817l-7.227,5.785l7.227,5.785L36.062,39.149z"/>
</g>
</svg>
