<?xml version="1.0" encoding="utf-8"?>
<!-- Generator: Adobe Illustrator 16.0.4, SVG Export Plug-In . SVG Version: 6.00 Build 0)  -->
<!DOCTYPE svg PUBLIC "-//W3C//DTD SVG 1.1//EN" "http://www.w3.org/Graphics/SVG/1.1/DTD/svg11.dtd">
<svg version="1.1" id="Layer_1" xmlns="http://www.w3.org/2000/svg" xmlns:xlink="http://www.w3.org/1999/xlink" x="0px" y="0px"
	 width="56.693px" height="56.693px" viewBox="0 0 56.693 56.693" enable-background="new 0 0 56.693 56.693" xml:space="preserve">
<path d="M28.348,5.158c-13.6,0-24.625,11.023-24.625,24.623c0,13.6,11.025,24.625,24.625,24.625
	c13.598,0,24.623-11.025,24.623-24.625C52.971,16.181,41.945,5.158,28.348,5.158z M17.213,41.372l-0.256-0.439l-4.256-7.303
	l-0.088-0.148l0.086-0.148l9.785-16.947l0.256-0.443l0.258,0.441l4.256,7.3l0.086,0.148l-0.086,0.148l-9.786,16.949L17.213,41.372z
	 M43.334,34.747l-4.197,7.336l-0.084,0.15h-0.172h-19.57h-0.51l0.254-0.443l4.195-7.336l0.086-0.15h0.172h19.57h0.51L43.334,34.747z
	 M43.078,32.563l-8.451,0.035h-0.17l-0.086-0.148l-9.785-16.949l-0.256-0.443l0.51-0.001l8.451-0.034l0.172-0.001l0.086,0.147
	l9.785,16.949l0.256,0.441L43.078,32.563z"/>
</svg>
