<?xml version="1.0" encoding="utf-8"?>
<!-- Generator: Adobe Illustrator 16.0.4, SVG Export Plug-In . SVG Version: 6.00 Build 0)  -->
<!DOCTYPE svg PUBLIC "-//W3C//DTD SVG 1.1//EN" "http://www.w3.org/Graphics/SVG/1.1/DTD/svg11.dtd">
<svg version="1.1" id="Layer_1" xmlns="http://www.w3.org/2000/svg" xmlns:xlink="http://www.w3.org/1999/xlink" x="0px" y="0px"
	 width="56.693px" height="56.693px" viewBox="0 0 56.693 56.693" enable-background="new 0 0 56.693 56.693" xml:space="preserve">
<path d="M50.128,52.852L29.434,5.186c-0.182-0.419-0.596-0.688-1.052-0.688l0,0c-0.456,0-0.87,0.27-1.05,0.687L6.566,52.85
	c-0.155,0.357-0.12,0.766,0.092,1.09c0.212,0.322,0.572,0.518,0.958,0.518h18.42V44.332l-4.936-3.423l0.816-1.174l4.119,2.854
	v-8.114h4.689v5.331l4.293-2.163l0.646,1.278l-4.939,2.488v3.93l7.882-3.973l0.644,1.277l-8.525,4.299v7.514h18.35
	c0.387,0,0.746-0.193,0.959-0.518C50.246,53.617,50.281,53.207,50.128,52.852z"/>
</svg>
