<?xml version="1.0" encoding="utf-8"?>
<!-- Generator: Adobe Illustrator 16.0.4, SVG Export Plug-In . SVG Version: 6.00 Build 0)  -->
<!DOCTYPE svg PUBLIC "-//W3C//DTD SVG 1.1//EN" "http://www.w3.org/Graphics/SVG/1.1/DTD/svg11.dtd">
<svg version="1.1" id="Layer_1" xmlns="http://www.w3.org/2000/svg" xmlns:xlink="http://www.w3.org/1999/xlink" x="0px" y="0px"
	 width="56.693px" height="56.693px" viewBox="0 0 56.693 56.693" enable-background="new 0 0 56.693 56.693" xml:space="preserve">
<path d="M45.051,26.615c-0.43-0.141-0.846-0.271-1.246-0.398c-3.057-0.961-4.9-1.541-4.9-3.92c0-1.93,1.488-3.329,3.541-3.329
	c1.572,0,2.744,0.652,3.795,2.123c0.098,0.137,0.283,0.186,0.436,0.105l3.084-1.574c0.084-0.041,0.146-0.117,0.172-0.207
	c0.027-0.09,0.018-0.186-0.029-0.268c-1.652-2.936-4.035-4.363-7.285-4.363c-4.945,0-8.143,2.992-8.143,7.622
	c0,4.734,3.092,6.65,8.795,8.527c3.305,1.102,4.766,1.686,4.766,4.037c0,2.643-2.383,4.543-5.637,4.432
	c-3.408-0.115-4.441-1.922-5.74-4.881c-2.197-5.012-4.697-10.863-4.721-10.92c-2.51-5.79-7.484-9.108-13.649-9.108
	c-8.144,0-14.77,6.627-14.77,14.774c0,8.143,6.626,14.77,14.77,14.77c4.442,0,8.606-1.969,11.422-5.404
	c0.082-0.1,0.102-0.234,0.051-0.354L27.9,33.982c-0.053-0.119-0.172-0.199-0.303-0.205c-0.135-0.006-0.256,0.068-0.316,0.184
	c-1.758,3.359-5.203,5.445-8.993,5.445c-5.589,0-10.135-4.547-10.135-10.139S12.7,19.128,18.289,19.128
	c4.069,0,7.797,2.415,9.278,6.018l4.605,10.504l0.531,1.18c2.082,4.85,5.141,7.023,9.932,7.041c5.697,0,9.992-3.775,9.992-8.779
	C52.627,30.064,49.848,28.18,45.051,26.615z"/>
</svg>
