<?xml version="1.0" encoding="utf-8"?>
<!-- Generator: Adobe Illustrator 16.0.4, SVG Export Plug-In . SVG Version: 6.00 Build 0)  -->
<!DOCTYPE svg PUBLIC "-//W3C//DTD SVG 1.1//EN" "http://www.w3.org/Graphics/SVG/1.1/DTD/svg11.dtd">
<svg version="1.1" id="Layer_1" xmlns="http://www.w3.org/2000/svg" xmlns:xlink="http://www.w3.org/1999/xlink" x="0px" y="0px"
	 width="56.693px" height="56.693px" viewBox="0 0 56.693 56.693" enable-background="new 0 0 56.693 56.693" xml:space="preserve">
<path d="M21.533,24.747c11.203-3.221,20.559,3.363,20.559,3.363l-7.711,2.082l-2.221-4.127c-2.09-0.383-4.471-0.504-7.002-0.078
	l5.25,10.668l22.684-6.533c0,0-8.227-12.92-32.764-8.747c-0.145,0.025-0.271,0.061-0.414,0.084l-2.382-4.838l-7.062,0.803
	l2.88,5.887C-1.54,29.46,5.058,43.958,5.058,43.958l22.717-6.539L21.533,24.747z M11.205,36.448c0,0-2.189-4.832,4.181-8.975
	l3.388,6.934L11.205,36.448z"/>
</svg>
