<?xml version="1.0" encoding="utf-8"?>
<!-- Generator: Adobe Illustrator 16.0.4, SVG Export Plug-In . SVG Version: 6.00 Build 0)  -->
<!DOCTYPE svg PUBLIC "-//W3C//DTD SVG 1.1//EN" "http://www.w3.org/Graphics/SVG/1.1/DTD/svg11.dtd">
<svg version="1.1" id="Layer_1" xmlns="http://www.w3.org/2000/svg" xmlns:xlink="http://www.w3.org/1999/xlink" x="0px" y="0px"
	 width="56.693px" height="56.693px" viewBox="0 0 56.693 56.693" enable-background="new 0 0 56.693 56.693" xml:space="preserve">
<g>
	<g>
		<path d="M43.189,6.374H14.023c-5.225,4.16-8.525,10.035-8.525,16.59c0,6.043,2.788,11.516,7.311,15.598l-1.383,13.824
			l12.815-7.688c2.576,0.691,5.314,1.078,8.166,1.078c8.236,0,15.574-3.162,20.508-8.102V16.102
			C52.914,10.737,48.553,6.374,43.189,6.374z M32.406,36.214c-9.404,0-17.35-6.064-17.35-13.25c0-7.182,7.946-13.252,17.35-13.252
			s17.35,6.07,17.35,13.252C49.756,30.149,41.811,36.214,32.406,36.214z"/>
	</g>
</g>
</svg>
