<?xml version="1.0" encoding="utf-8"?>
<!-- Generator: Adobe Illustrator 16.0.4, SVG Export Plug-In . SVG Version: 6.00 Build 0)  -->
<!DOCTYPE svg PUBLIC "-//W3C//DTD SVG 1.1//EN" "http://www.w3.org/Graphics/SVG/1.1/DTD/svg11.dtd">
<svg version="1.1" id="Layer_1" xmlns="http://www.w3.org/2000/svg" xmlns:xlink="http://www.w3.org/1999/xlink" x="0px" y="0px"
	 width="56.693px" height="56.693px" viewBox="0 0 56.693 56.693" enable-background="new 0 0 56.693 56.693" xml:space="preserve">
<path d="M3.59,29.355c0,9.742,5.663,18.17,13.878,22.156L5.723,19.332C4.355,22.396,3.59,25.783,3.59,29.355z M44.836,28.111
	c0-3.043-1.096-5.152-2.031-6.791c-1.248-2.03-2.416-3.745-2.416-5.776c0-2.264,1.711-4.369,4.135-4.369
	c0.105,0,0.211,0.014,0.316,0.021C40.461,7.183,34.625,4.73,28.215,4.73c-8.605,0-16.172,4.416-20.573,11.1
	c0.579,0.018,1.121,0.031,1.583,0.031c2.577,0,6.563-0.316,6.563-0.316c1.324-0.074,1.481,1.871,0.154,2.031
	c0,0-1.332,0.154-2.817,0.234l8.968,26.668l5.389-16.158l-3.838-10.51c-1.326-0.08-2.582-0.234-2.582-0.234
	c-1.328-0.08-1.17-2.105,0.158-2.031c0,0,4.064,0.316,6.482,0.316c2.574,0,6.566-0.316,6.566-0.316
	c1.322-0.074,1.48,1.871,0.152,2.031c0,0-1.33,0.154-2.816,0.234l8.9,26.465l2.457-8.203C44.209,32.871,44.836,30.221,44.836,28.111
	z M28.646,31.51l-7.389,21.469c2.205,0.648,4.535,1,6.957,1c2.865,0,5.617-0.496,8.176-1.398c-0.066-0.105-0.127-0.215-0.176-0.336
	L28.646,31.51z M49.818,17.539c0.109,0.787,0.17,1.627,0.17,2.535c0,2.497-0.469,5.305-1.875,8.819l-7.52,21.742
	c7.318-4.266,12.24-12.195,12.24-21.279C52.834,25.072,51.74,21.049,49.818,17.539z"/>
</svg>
