<?xml version="1.0" encoding="utf-8"?>
<!-- Generator: Adobe Illustrator 16.0.4, SVG Export Plug-In . SVG Version: 6.00 Build 0)  -->
<!DOCTYPE svg PUBLIC "-//W3C//DTD SVG 1.1//EN" "http://www.w3.org/Graphics/SVG/1.1/DTD/svg11.dtd">
<svg version="1.1" id="Layer_1" xmlns="http://www.w3.org/2000/svg" xmlns:xlink="http://www.w3.org/1999/xlink" x="0px" y="0px"
	 width="56.693px" height="56.693px" viewBox="0 0 56.693 56.693" enable-background="new 0 0 56.693 56.693" xml:space="preserve">
<path d="M28.348,5.157c-13.6,0-24.625,11.027-24.625,24.625c0,13.6,11.025,24.623,24.625,24.623
	c13.598,0,24.623-11.023,24.623-24.623C52.971,16.185,41.945,5.157,28.348,5.157z M41.586,42.767
	c-0.129,0.193-0.346,0.312-0.58,0.312h-11.09v-4.541l5.154-2.6l-0.391-0.77l-4.764,2.4v-2.377L32.9,33.69l-0.389-0.775l-2.596,1.311
	v-3.223h-2.834v4.904l-2.49-1.727L24.1,34.894l2.982,2.064v6.121H15.95c-0.233,0-0.452-0.119-0.58-0.312
	c-0.128-0.195-0.148-0.441-0.056-0.656L27.863,13.3c0.111-0.254,0.361-0.416,0.637-0.416l0,0c0.275,0,0.525,0.162,0.635,0.416
	L41.643,42.11C41.736,42.325,41.715,42.571,41.586,42.767z"/>
</svg>
