<?xml version="1.0" encoding="utf-8"?>
<!-- Generator: Adobe Illustrator 16.0.4, SVG Export Plug-In . SVG Version: 6.00 Build 0)  -->
<!DOCTYPE svg PUBLIC "-//W3C//DTD SVG 1.1//EN" "http://www.w3.org/Graphics/SVG/1.1/DTD/svg11.dtd">
<svg version="1.1" id="Layer_1" xmlns="http://www.w3.org/2000/svg" xmlns:xlink="http://www.w3.org/1999/xlink" x="0px" y="0px"
	 width="56.693px" height="56.693px" viewBox="0 0 56.693 56.693" enable-background="new 0 0 56.693 56.693" xml:space="preserve">
<path d="M28.347,5.157c-13.6,0-24.625,11.027-24.625,24.625c0,13.6,11.025,24.623,24.625,24.623c13.6,0,24.625-11.023,24.625-24.623
	C52.972,16.184,41.946,5.157,28.347,5.157z M18.904,37.411c-4.281,0-7.751-3.467-7.751-7.748c0-4.283,3.47-7.75,7.751-7.75
	c4.281,0,7.75,3.467,7.75,7.75C26.653,33.944,23.185,37.411,18.904,37.411z M38.351,37.411c-4.281,0-7.75-3.467-7.75-7.748
	c0-4.283,3.469-7.75,7.75-7.75c4.279,0,7.75,3.467,7.75,7.75C46.101,33.944,42.63,37.411,38.351,37.411z"/>
</svg>
