<?xml version="1.0" encoding="utf-8"?>
<!-- Generator: Adobe Illustrator 16.0.4, SVG Export Plug-In . SVG Version: 6.00 Build 0)  -->
<!DOCTYPE svg PUBLIC "-//W3C//DTD SVG 1.1//EN" "http://www.w3.org/Graphics/SVG/1.1/DTD/svg11.dtd">
<svg version="1.1" id="Layer_1" xmlns="http://www.w3.org/2000/svg" xmlns:xlink="http://www.w3.org/1999/xlink" x="0px" y="0px"
	 width="56.693px" height="56.693px" viewBox="0 0 56.693 56.693" enable-background="new 0 0 56.693 56.693" xml:space="preserve">
<path d="M28.347,5.155c-13.6,0-24.625,11.025-24.625,24.625c0,13.602,11.024,24.625,24.625,24.625
	c13.6,0,24.625-11.023,24.625-24.625C52.972,16.18,41.946,5.155,28.347,5.155z M37.937,40.163c-3.354-0.012-5.494-1.531-6.953-4.928
	l-0.371-0.826l-3.225-7.352c-1.035-2.521-3.645-4.215-6.494-4.215c-3.912,0-7.094,3.186-7.094,7.098c0,3.914,3.183,7.1,7.094,7.1
	c2.652,0,5.064-1.463,6.295-3.811c0.043-0.082,0.129-0.135,0.221-0.129c0.094,0.002,0.176,0.057,0.213,0.143l1.303,3.008
	c0.035,0.084,0.021,0.178-0.035,0.248c-1.971,2.402-4.887,3.779-7.996,3.779c-5.701,0-10.338-4.639-10.338-10.338
	c0-5.701,4.638-10.34,10.338-10.34c4.316,0,7.799,2.324,9.555,6.374c0.018,0.043,1.768,4.139,3.305,7.646
	c0.908,2.072,1.633,3.334,4.018,3.414c2.277,0.082,3.945-1.25,3.945-3.102c0-1.643-1.021-2.053-3.334-2.822
	c-3.992-1.316-6.156-2.658-6.156-5.973c0-3.241,2.236-5.334,5.699-5.334c2.273,0,3.941,0.998,5.1,3.055
	c0.031,0.057,0.039,0.125,0.02,0.188c-0.018,0.061-0.062,0.115-0.121,0.145l-2.158,1.104c-0.105,0.055-0.236,0.021-0.305-0.074
	c-0.736-1.029-1.555-1.488-2.656-1.488c-1.436,0-2.479,0.979-2.479,2.33c0,1.666,1.291,2.072,3.43,2.744
	c0.279,0.086,0.572,0.182,0.873,0.281c3.357,1.094,5.303,2.412,5.303,5.932C44.931,37.522,41.925,40.163,37.937,40.163z"/>
</svg>
