<?xml version="1.0" encoding="utf-8"?>
<!-- Generator: Adobe Illustrator 16.0.4, SVG Export Plug-In . SVG Version: 6.00 Build 0)  -->
<!DOCTYPE svg PUBLIC "-//W3C//DTD SVG 1.1//EN" "http://www.w3.org/Graphics/SVG/1.1/DTD/svg11.dtd">
<svg version="1.1" id="Layer_1" xmlns="http://www.w3.org/2000/svg" xmlns:xlink="http://www.w3.org/1999/xlink" x="0px" y="0px"
	 width="56.693px" height="56.693px" viewBox="0 0 56.693 56.693" enable-background="new 0 0 56.693 56.693" xml:space="preserve">
<g>
	<path d="M43.503,24.87c0.275-0.055,0.684-0.146,1.146-0.246h3.578l0.557-0.823c0.012-0.006,0.033-0.008,0.045-0.008l1.385-2
		c-0.02,0-0.053-0.004-0.068-0.004l0.145-0.217H30.897l0.746,3.051h5.293l-8.906,8.039c-1.818-2.51-6.078-7.74-9.049-12.069h6.667
		v-2.322l0.076-0.512c-0.02-0.004-0.057-0.01-0.076-0.01v-0.209H3.535v3.053h6.558c2.545,1.99,12.28,14.145,12.684,15.358
		c0.162,1.135,0.311,7.836-0.166,8.342c-0.957,1.012-5.322,0.744-6.375,0.818l-0.364,2.076c1.923,0.057,8.181-0.156,10.126-0.156
		c3.834,0,10.549-0.018,11.496,0.055l0.117-2.178c-0.969-0.164-6.254-0.02-6.984-0.186c-0.162-1.055-0.34-8.109-0.178-8.838
		C31.179,33.778,42.286,25.198,43.503,24.87z"/>
	<path d="M46.722,41.544l2.971,0.236l3.461-13.369c-0.578-0.02-5.83-0.516-6.512-0.648L46.722,41.544z"/>
	<polygon points="46.208,43.687 46.226,46.95 47.729,47.081 49.354,47.202 49.831,44.007 48.118,43.923 	"/>
</g>
</svg>
