<?xml version="1.0" encoding="utf-8"?>
<!-- Generator: Adobe Illustrator 16.0.4, SVG Export Plug-In . SVG Version: 6.00 Build 0)  -->
<!DOCTYPE svg PUBLIC "-//W3C//DTD SVG 1.1//EN" "http://www.w3.org/Graphics/SVG/1.1/DTD/svg11.dtd">
<svg version="1.1" id="Layer_1" xmlns="http://www.w3.org/2000/svg" xmlns:xlink="http://www.w3.org/1999/xlink" x="0px" y="0px"
	 width="56.693px" height="56.693px" viewBox="0 0 56.693 56.693" enable-background="new 0 0 56.693 56.693" xml:space="preserve">
<path d="M30.319,44.408c0.143-4.266-3.457-7.93-8.023-8.168l-1.719-0.09c-1.659-0.084-3.063-1.461-3.063-3.004
	c0-1.49,1.383-2.777,2.998-2.777h11.292c1.615,0,2.861,1.385,2.861,2.998V43.76c0,4.602,3.744,8.342,8.344,8.342h1.365
	c4.602,0,8.344-3.74,8.344-8.342V8.833c-0.203-0.01-0.395-0.059-0.602-0.059h-4.814V43.76c0,1.615-1.312,2.924-2.928,2.924h-1.365
	c-1.613,0-2.928-1.309-2.928-2.924V33.367c0-4.602-3.742-8.346-8.346-8.346h-11.29c-4.602,0-8.347,3.646-8.347,8.125
	c0,4.402,3.678,8.18,8.194,8.412l1.719,0.092c1.613,0.084,2.939,1.262,2.895,2.578c-0.043,1.334-1.465,2.455-3.1,2.455H3.976v5.418
	h17.832C26.358,52.102,30.177,48.65,30.319,44.408z"/>
</svg>
