<?xml version="1.0" encoding="utf-8"?>
<!-- Generator: Adobe Illustrator 16.0.4, SVG Export Plug-In . SVG Version: 6.00 Build 0)  -->
<!DOCTYPE svg PUBLIC "-//W3C//DTD SVG 1.1//EN" "http://www.w3.org/Graphics/SVG/1.1/DTD/svg11.dtd">
<svg version="1.1" id="Layer_1" xmlns="http://www.w3.org/2000/svg" xmlns:xlink="http://www.w3.org/1999/xlink" x="0px" y="0px"
	 width="56.693px" height="56.693px" viewBox="0 0 56.693 56.693" enable-background="new 0 0 56.693 56.693" xml:space="preserve">
<path d="M6.079,36.215c0.104,0,0.188-0.082,0.205-0.199l0.551-4.33l-0.551-4.428c-0.017-0.117-0.102-0.197-0.206-0.197
	s-0.19,0.084-0.205,0.197c0,0.002-0.485,4.428-0.485,4.428l0.485,4.33C5.888,36.131,5.975,36.215,6.079,36.215z M4.453,34.377
	c0,0,0,0,0,0.002l0,0V34.377z M4.256,34.57c0.1,0,0.181-0.08,0.197-0.191l0.427-2.693l-0.427-2.738
	c-0.015-0.113-0.097-0.193-0.197-0.193c-0.103,0-0.184,0.082-0.198,0.195l-0.36,2.736l0.36,2.691
	C4.072,34.49,4.154,34.57,4.256,34.57z M8.263,26.434c-0.016-0.141-0.12-0.242-0.248-0.242c-0.13,0-0.234,0.102-0.247,0.242
	c0,0.002-0.46,5.254-0.46,5.254l0.46,5.061c0.013,0.141,0.117,0.242,0.247,0.242c0.128,0,0.232-0.102,0.247-0.24l0.523-5.062
	L8.263,26.434z M9.969,37.191c0.15,0,0.274-0.121,0.288-0.283l0,0l0.494-5.221l-0.494-5.396c-0.014-0.164-0.138-0.285-0.288-0.285
	c-0.153,0-0.278,0.121-0.29,0.285l-0.436,5.396l0.436,5.221C9.691,37.07,9.815,37.191,9.969,37.191z M11.937,37.277
	c0.176,0,0.318-0.139,0.331-0.326v0.002l0.466-5.266l-0.466-5.008c-0.012-0.186-0.155-0.326-0.331-0.326
	c-0.178,0-0.321,0.143-0.332,0.328l-0.41,5.006l0.41,5.264C11.616,37.139,11.758,37.277,11.937,37.277z M14.73,31.689l-0.437-8.145
	c-0.011-0.207-0.175-0.369-0.373-0.369c-0.199,0-0.362,0.162-0.373,0.369l-0.385,8.145l0.385,5.266
	c0.011,0.205,0.174,0.367,0.373,0.367c0.198,0,0.362-0.162,0.373-0.369v0.002L14.73,31.689z M15.92,37.332
	c0.222,0,0.405-0.182,0.416-0.412v0.004l0.407-5.232l-0.407-10.008c-0.011-0.232-0.193-0.412-0.416-0.412
	c-0.223,0-0.405,0.18-0.415,0.412l-0.36,10.008l0.36,5.23C15.515,37.15,15.698,37.332,15.92,37.332z M17.937,20.395
	c-0.249,0-0.449,0.199-0.458,0.455l-0.336,10.842l0.336,5.178c0.008,0.252,0.209,0.451,0.458,0.451c0.246,0,0.447-0.199,0.457-0.453
	l0,0.004l0.379-5.18L18.394,20.85C18.384,20.594,18.183,20.395,17.937,20.395z M19.968,37.332c0.272,0,0.491-0.219,0.5-0.496
	l0,0.002l0.35-5.145l-0.35-11.209c-0.009-0.279-0.228-0.496-0.5-0.496c-0.271,0-0.491,0.217-0.5,0.496l-0.311,11.207l0.311,5.146
	C19.477,37.113,19.697,37.332,19.968,37.332z M22.017,37.326c0.295,0,0.533-0.238,0.541-0.539v0.004l0.32-5.098l-0.32-10.924
	c-0.008-0.301-0.246-0.537-0.541-0.537c-0.297,0-0.535,0.236-0.542,0.537l-0.286,10.924l0.286,5.096
	C21.481,37.088,21.72,37.326,22.017,37.326z M24.956,31.693l-0.292-10.525c-0.008-0.324-0.265-0.58-0.584-0.58
	c-0.321,0-0.577,0.256-0.584,0.582l-0.261,10.523l0.262,5.066c0.006,0.32,0.262,0.576,0.583,0.576c0.319,0,0.576-0.256,0.584-0.582
	v0.006L24.956,31.693z M26.159,37.346c0.339,0,0.619-0.279,0.626-0.623v0.004l0.263-5.031l-0.263-12.523
	c-0.007-0.344-0.287-0.623-0.626-0.623c-0.34,0-0.619,0.279-0.625,0.623l-0.236,12.52c0,0.01,0.236,5.033,0.236,5.033
	C25.54,37.066,25.819,37.346,26.159,37.346z M28.229,17.372c-0.363,0-0.662,0.3-0.668,0.667l-0.273,13.657l0.273,4.959
	c0.006,0.361,0.305,0.66,0.668,0.66s0.662-0.299,0.668-0.664v0.004l0.297-4.959l-0.297-13.658
	C28.892,17.671,28.593,17.372,28.229,17.372z M30.124,37.35c0.016,0.002,16.699,0.01,16.807,0.01c3.35,0,6.064-2.715,6.064-6.064
	s-2.715-6.062-6.064-6.062c-0.83,0-1.623,0.168-2.344,0.469c-0.484-5.465-5.064-9.75-10.654-9.75c-1.369,0-2.702,0.27-3.879,0.726
	c-0.459,0.177-0.58,0.358-0.584,0.713v19.244C29.474,37.004,29.762,37.312,30.124,37.35z"/>
</svg>
