<?xml version="1.0" encoding="utf-8"?>
<!-- Generator: Adobe Illustrator 16.0.4, SVG Export Plug-In . SVG Version: 6.00 Build 0)  -->
<!DOCTYPE svg PUBLIC "-//W3C//DTD SVG 1.1//EN" "http://www.w3.org/Graphics/SVG/1.1/DTD/svg11.dtd">
<svg version="1.1" id="Layer_1" xmlns="http://www.w3.org/2000/svg" xmlns:xlink="http://www.w3.org/1999/xlink" x="0px" y="0px"
	 width="56.693px" height="56.693px" viewBox="0 0 56.693 56.693" enable-background="new 0 0 56.693 56.693" xml:space="preserve">
<g>
	<path fill-rule="evenodd" clip-rule="evenodd" d="M30.98,26.18c-0.525-0.359-1.191-0.561-2.131-0.561
		c-1.381,0-2.309,0.359-3.117,1.426h-0.061v-6.601h-3.809v5.486c0.055,0.021,0.109,0.045,0.162,0.07
		c1.467,0.568,2.305,1.387,2.754,2.379c0.441,0.977,0.492,2.096,0.398,3.299h-0.002c-0.016,0.229-0.203,0.41-0.432,0.41h-2.881
		v0.002v0.367h2.762v0.002h0.021c0.238,0.012,0.424,0.223,0.412,0.469c-0.033,0.725-0.318,1.361-0.836,1.912
		c-0.473,0.506-1.146,0.938-2.006,1.297c-0.109,0.096-0.143,0.115-0.264,0.117l-0.09,0.039v2.113h3.631v-1.371h0.061
		c0.689,1.207,1.736,1.641,3.236,1.641c2.975,0,3.633-2.277,3.801-4.477l-0.051-0.008v-0.002h-0.008
		c-1.332-0.279-2.174-1.059-2.637-2.104l0,0c-0.09-0.203-0.164-0.414-0.221-0.623c-0.146-0.516-0.213-1.08-0.213-1.67h-0.002v-0.008
		c0-0.875,0.143-1.609,0.414-2.215C30.133,26.988,30.506,26.531,30.98,26.18L30.98,26.18z M28.85,32.004
		c0,3.174-0.217,4.49-1.617,4.49c-1.322,0-1.561-1.316-1.561-4.49c0-2.471,0-4.221,1.561-4.221
		C28.91,27.783,28.85,29.533,28.85,32.004L28.85,32.004z"/>
	<path fill-rule="evenodd" clip-rule="evenodd" d="M24.625,32.904h-2.762h-2.035H19.77h-2.25c0,0.957-0.514,2.02-3.001,2.02
		c-3.079,0-3.138-1.965-3.138-3.281h10.482h2.881c0.178-2.271-0.178-4.184-2.881-5.23c-0.593-0.27-1.284-0.434-2.093-0.576
		c-1.322-0.27-3.06-0.434-5.251-0.434c-9.198,0-10.186,2.598-10.186,5.609c0,3.48,1.165,5.914,10.186,5.914
		c2.072,0,3.869-0.215,5.31-0.467c0.751-0.164,1.441-0.379,2.035-0.65c0.059,0,0.059,0,0.117-0.055
		C23.658,35.07,24.566,34.131,24.625,32.904L24.625,32.904z M14.519,27.314c3.356,0,3.237,1.533,3.237,2.578h-6.375
		C11.381,28.992,11.341,27.314,14.519,27.314L14.519,27.314z"/>
	<path fill-rule="evenodd" clip-rule="evenodd" d="M31.338,26.467c-0.928,0.631-1.441,1.695-1.441,3.318
		c0,1.912,0.75,3.553,2.723,3.967c0.277,0.057,0.574,0.057,0.93,0.057c1.678,0,2.762-0.633,3.57-1.895h0.061l0.178,1.676h3.594
		c-0.061-0.793-0.178-1.586-0.178-2.379v-2.396l-0.381-0.709l0,0l-3.828-7.084l-0.145-0.268c-0.371-0.031-0.768-0.058-1.193-0.058
		c-1.461,0-2.725,0.217-3.594,0.847c-0.928,0.543-1.441,1.533-1.441,3.066h3.811c0-0.99,0.061-1.947,1.441-1.947
		c1.4,0,1.559,0.793,1.559,1.84v1.01C34.811,25.457,32.68,25.512,31.338,26.467L31.338,26.467z M35.109,31.643
		c-1.285,0-1.463-1.117-1.463-2.002c0-2.219,1.463-2.072,3.355-2.182C37.002,28.848,37.357,31.643,35.109,31.643L35.109,31.643z"/>
	<polygon fill-rule="evenodd" clip-rule="evenodd" points="48.984,19.127 45.117,26.664 41.523,19.127 36.035,19.127 36.943,20.804 
		40.773,27.891 42.332,30.795 42.332,36.98 47.365,36.98 47.365,30.795 54.078,19.127 48.984,19.127 	"/>
</g>
</svg>
