<?xml version="1.0" encoding="utf-8"?>
<!-- Generator: Adobe Illustrator 16.0.4, SVG Export Plug-In . SVG Version: 6.00 Build 0)  -->
<!DOCTYPE svg PUBLIC "-//W3C//DTD SVG 1.1//EN" "http://www.w3.org/Graphics/SVG/1.1/DTD/svg11.dtd">
<svg version="1.1" id="Layer_1" xmlns="http://www.w3.org/2000/svg" xmlns:xlink="http://www.w3.org/1999/xlink" x="0px" y="0px"
	 width="56.693px" height="56.693px" viewBox="0 0 56.693 56.693" enable-background="new 0 0 56.693 56.693" xml:space="preserve">
<path d="M28.347,5.157c-13.6,0-24.625,11.027-24.625,24.625c0,13.6,11.024,24.623,24.625,24.623c13.6,0,24.625-11.023,24.625-24.623
	C52.972,16.184,41.946,5.157,28.347,5.157z M40.991,35.597v6.232h-0.004l0.004,0.564c-6.047,3.053-16.084,3.922-21.872,0.018
	c-3.507-2.365-6.963-7.066-6.774-13.016c0.18-5.648,3.842-10.706,8.878-13.252c5.791-2.93,14.533-2.375,19.629,1.844l-3.004,3.061
	l-1.945,0.553l1.035-1.879c-1.484-1.496-3.191-2.578-5.068-3.18c-2.996-0.957-5.758-0.428-8.061,0.699
	c-4.717,2.309-7.506,7.903-6.424,13.819c1.143,6.234,5.965,11.234,12.292,11.76c1.863,0.158,3.904,0.064,5.711-0.412
	c1.283-0.414,1.275-0.539,1.275-1.318v-5.492l-6.336,0.188l3.262-1.838h8.807L40.991,35.597z"/>
</svg>
