<?xml version="1.0" encoding="utf-8"?>
<!-- Generator: Adobe Illustrator 16.0.4, SVG Export Plug-In . SVG Version: 6.00 Build 0)  -->
<!DOCTYPE svg PUBLIC "-//W3C//DTD SVG 1.1//EN" "http://www.w3.org/Graphics/SVG/1.1/DTD/svg11.dtd">
<svg version="1.1" id="Layer_1" xmlns="http://www.w3.org/2000/svg" xmlns:xlink="http://www.w3.org/1999/xlink" x="0px" y="0px"
	 width="56.693px" height="56.693px" viewBox="0 0 56.693 56.693" enable-background="new 0 0 56.693 56.693" xml:space="preserve">
<g>
	<polygon points="29.019,33.741 32.774,33.741 32.421,37.7 29.019,38.62 29.015,38.62 25.616,37.7 25.392,35.161 22.327,35.161 
		22.765,40.06 29.015,41.794 29.019,41.792 35.272,40.06 36.108,30.692 29.019,30.692 24.991,30.692 24.712,27.569 29.019,27.569 
		36.386,27.569 36.659,24.519 29.019,24.519 21.378,24.519 22.202,33.741 	"/>
	<path d="M28.347,5.157c-13.6,0-24.625,11.027-24.625,24.625c0,13.6,11.024,24.623,24.625,24.623
		c13.602,0,24.625-11.023,24.625-24.623C52.972,16.184,41.948,5.157,28.347,5.157z M35.222,12.76h1.551v3.107h2.18v1.531h-3.73
		V12.76z M29.229,12.76h1.615l0.994,1.629l0.994-1.629h1.617v4.639h-1.545V15.1l-1.066,1.648h-0.025L30.745,15.1v2.299h-1.516V12.76
		z M24.269,12.76h4.281v1.539h-1.367v3.1h-1.549v-3.1h-1.365V12.76z M19.076,12.76h1.55v1.533h1.418V12.76h1.551v4.639h-1.551
		v-1.553h-1.418v1.553h-1.55V12.76z M38.978,44.308l-9.965,2.764l-9.954-2.766l-2.218-24.872h24.355L38.978,44.308z"/>
</g>
</svg>
