<?xml version="1.0" encoding="utf-8"?>
<!-- Generator: Adobe Illustrator 16.0.4, SVG Export Plug-In . SVG Version: 6.00 Build 0)  -->
<!DOCTYPE svg PUBLIC "-//W3C//DTD SVG 1.1//EN" "http://www.w3.org/Graphics/SVG/1.1/DTD/svg11.dtd">
<svg version="1.1" id="Layer_1" xmlns="http://www.w3.org/2000/svg" xmlns:xlink="http://www.w3.org/1999/xlink" x="0px" y="0px"
	 width="56.693px" height="56.693px" viewBox="0 0 56.693 56.693" enable-background="new 0 0 56.693 56.693" xml:space="preserve">
<path d="M28.347,5.155c-13.6,0-24.625,11.025-24.625,24.625c0,13.602,11.024,24.625,24.625,24.625
	c13.602,0,24.625-11.023,24.625-24.625C52.972,16.18,41.948,5.155,28.347,5.155z M36.933,43.403
	c-1.324,0.621-2.523,1.061-3.598,1.312c-1.076,0.252-2.236,0.377-3.484,0.377c-1.418,0-2.254-0.178-3.344-0.533
	c-1.088-0.359-2.018-0.873-2.785-1.531c-0.771-0.664-1.303-1.371-1.602-2.115c-0.297-0.746-0.445-1.828-0.445-3.248V26.792h-4.212
	v-4.391c1.218-0.395,2.63-0.963,3.496-1.702c0.873-0.74,1.568-1.627,2.094-2.664c0.525-1.033,0.889-2.35,1.086-3.951h4.41v7.174
	h7.168v5.534h-7.168v7.951c0,1.799-0.023,2.836,0.166,3.344s0.664,1.035,1.182,1.34c0.688,0.41,1.469,0.617,2.354,0.617
	c1.57,0,3.131-0.512,4.684-1.531V43.403z"/>
</svg>
