<?xml version="1.0" encoding="utf-8"?>
<!-- Generator: Adobe Illustrator 16.0.4, SVG Export Plug-In . SVG Version: 6.00 Build 0)  -->
<!DOCTYPE svg PUBLIC "-//W3C//DTD SVG 1.1//EN" "http://www.w3.org/Graphics/SVG/1.1/DTD/svg11.dtd">
<svg version="1.1" id="Layer_1" xmlns="http://www.w3.org/2000/svg" xmlns:xlink="http://www.w3.org/1999/xlink" x="0px" y="0px"
	 width="56.693px" height="56.693px" viewBox="0 0 56.693 56.693" enable-background="new 0 0 56.693 56.693" xml:space="preserve">
<path d="M28.346,5.155C14.747,5.155,3.722,16.18,3.722,29.78c0,13.602,11.024,24.625,24.624,24.625
	c13.602,0,24.625-11.023,24.625-24.625C52.971,16.18,41.947,5.155,28.346,5.155z M19.097,17.02c2.174-0.889,3.942-1.244,5.418-1.271
	c0.01,0,0.021,0,0.033,0c0.865,0,1.648,0.102,2.342,0.266c1.451,0.369,3.537,1.621,3.537,1.621v0.006
	c-0.598,2.049-2.367,8.118-2.963,10.135c-1.557-1.031-3.23-1.977-5.59-1.996c-0.027,0-0.053,0-0.08,0
	c-1.522,0-3.333,0.398-5.567,1.312L19.097,17.02z M18.123,38.392c-1.494,0-3.271,0.355-5.472,1.244l2.911-10.096
	c0.332-0.137,0.656-0.258,0.97-0.371c1.062-0.375,2.574-0.801,4.234-0.936c0.189-0.016,0.377-0.025,0.564-0.025
	c1.656,0,3.166,0.58,4.252,1.137c0.463,0.25,0.902,0.521,1.338,0.793c-0.385,1.32-2.416,8.254-3.014,10.277
	C22.293,39.345,20.585,38.392,18.123,38.392z M37.654,42.192c-2.412,0.996-4.34,1.393-5.953,1.393c-2.551,0-5.949-2.098-5.943-2.092
	l2.902-10.082c0.883,0.707,2.93,2.049,6.295,2.049c1.547,0,3.375-0.285,5.498-1.047L37.654,42.192z M41.209,29.737
	c-0.008,0.002-0.014,0.004-0.018,0.004c0,0.008,0,0.014,0,0.018c-2.037,0.959-3.902,1.342-5.578,1.342
	c-2.537,0-4.643-0.877-6.26-1.957c-0.01-0.008-0.023-0.014-0.031-0.023l2.941-10.178c0.932,0.723,3.033,2.08,6.223,2.08
	c1.605,0,3.48-0.344,5.623-1.277L41.209,29.737z"/>
</svg>
