<?xml version="1.0" encoding="utf-8"?>
<!-- Generator: Adobe Illustrator 16.0.4, SVG Export Plug-In . SVG Version: 6.00 Build 0)  -->
<!DOCTYPE svg PUBLIC "-//W3C//DTD SVG 1.1//EN" "http://www.w3.org/Graphics/SVG/1.1/DTD/svg11.dtd">
<svg version="1.1" id="Layer_1" xmlns="http://www.w3.org/2000/svg" xmlns:xlink="http://www.w3.org/1999/xlink" x="0px" y="0px"
	 width="56.693px" height="56.693px" viewBox="0 0 56.693 56.693" enable-background="new 0 0 56.693 56.693" xml:space="preserve">
<g>
	<path d="M17.497,33.237l5.299-1.43l-2.372-4.852C15.965,29.854,17.497,33.237,17.497,33.237z"/>
	<path d="M28.347,5.157c-13.6,0-24.625,11.023-24.625,24.624c0,13.6,11.024,24.625,24.625,24.625
		c13.6,0,24.625-11.025,24.625-24.625C52.972,16.18,41.946,5.157,28.347,5.157z M30.94,33.384l-3.676-7.469
		c1.773-0.297,3.439-0.213,4.902,0.057l1.555,2.889l5.396-1.459c0,0-6.549-4.607-14.391-2.354l4.369,8.867l-15.902,4.58
		c0,0-4.618-10.148,5.805-14.451l-2.016-4.124l4.943-0.561l1.668,3.387c0.1-0.018,0.188-0.041,0.289-0.057
		c17.176-2.924,22.936,6.119,22.936,6.119L30.94,33.384z"/>
</g>
</svg>
