<?xml version="1.0" encoding="utf-8"?>
<!-- Generator: Adobe Illustrator 16.0.4, SVG Export Plug-In . SVG Version: 6.00 Build 0)  -->
<!DOCTYPE svg PUBLIC "-//W3C//DTD SVG 1.1//EN" "http://www.w3.org/Graphics/SVG/1.1/DTD/svg11.dtd">
<svg version="1.1" id="Layer_1" xmlns="http://www.w3.org/2000/svg" xmlns:xlink="http://www.w3.org/1999/xlink" x="0px" y="0px"
	 width="56.693px" height="56.693px" viewBox="0 0 56.693 56.693" enable-background="new 0 0 56.693 56.693" xml:space="preserve">
<path d="M28.347,5.157c-13.6,0-24.625,11.023-24.625,24.624c0,13.6,11.025,24.625,24.625,24.625c13.6,0,24.625-11.025,24.625-24.625
	C52.972,16.18,41.946,5.157,28.347,5.157z M11.958,30.468v-4.371c0-0.371,0.302-0.674,0.676-0.674h7.556l-3.283,5.721h-4.272
	C12.26,31.144,11.958,30.839,11.958,30.468z M17.336,39.706l-2.512,1.707c-0.34,0.232-0.578,0.088-0.532-0.322l0.337-2.928
	c0.047-0.406,0.376-0.574,0.731-0.369l1.944,1.115C17.662,39.114,17.676,39.472,17.336,39.706z M18.961,37.78
	c-0.205,0.355-0.664,0.479-1.02,0.273l-1.945-1.117c-0.355-0.203-0.48-0.662-0.275-1.018l2.742-4.775l3.286-5.721l2.98-5.194
	c0.203-0.354,0.664-0.48,1.02-0.273l1.943,1.113c0.357,0.207,0.48,0.665,0.275,1.02l-2.734,4.762l-2.461,4.293L18.961,37.78z
	 M24.329,31.144l3.283-5.721h2.975c1.15,2.615,2.008,4.441,2.654,5.721H24.329z M35.962,33.063
	c-0.777-0.393-4.656-9.344-5.65-11.678c-0.994-2.338-3.996-8.553-3.027-9.039c0.693-0.344,3.176,4.549,5.033,7.488
	c1.061,1.678,2.781,4.866,4.152,7.456c0.018,0.033,0.035,0.068,0.053,0.102c0.062,0.117,0.123,0.234,0.184,0.348
	c0.018,0.033,0.035,0.064,0.051,0.096c0.055,0.102,0.107,0.203,0.16,0.303c0.029,0.059,0.059,0.115,0.09,0.168
	c0.033,0.068,0.068,0.135,0.102,0.199c0.047,0.088,0.094,0.174,0.141,0.26c0.006,0.018,0.014,0.031,0.021,0.047
	c0.594,1.127,1.047,1.996,1.227,2.332c0.014,0.027,0.029,0.053,0.039,0.072c0.477,0.865-0.455,1.588-0.975,1.801
	C37.042,33.233,36.741,33.45,35.962,33.063z M38.511,37.177l-1.17-1.852c-0.242-0.387-0.119-0.861,0.275-1.066l1.115-0.574
	c0.395-0.201,0.887-0.037,1.098,0.365l0.926,1.779c0.209,0.402,0.066,0.92-0.314,1.145l-0.797,0.477
	C39.265,37.683,38.753,37.558,38.511,37.177z M43.274,42.483c-0.246-0.787-2.115-0.838-2.953-2.018s-0.145-1.783,0.146-2.064
	C43.862,36.487,43.274,42.483,43.274,42.483z M44.245,30.468c0,0.371-0.301,0.676-0.676,0.676h-3.625
	c-0.049-0.197-0.121-0.391-0.223-0.578c-0.098-0.176-0.375-0.703-0.725-1.371c-0.504-0.961-1.219-2.324-1.992-3.771h6.564
	c0.375,0,0.676,0.303,0.676,0.674V30.468z"/>
</svg>
