<?xml version="1.0" encoding="utf-8"?>
<!-- Generator: Adobe Illustrator 16.0.4, SVG Export Plug-In . SVG Version: 6.00 Build 0)  -->
<!DOCTYPE svg PUBLIC "-//W3C//DTD SVG 1.1//EN" "http://www.w3.org/Graphics/SVG/1.1/DTD/svg11.dtd">
<svg version="1.1" id="Layer_1" xmlns="http://www.w3.org/2000/svg" xmlns:xlink="http://www.w3.org/1999/xlink" x="0px" y="0px"
	 width="56.693px" height="56.693px" viewBox="0 0 56.693 56.693" enable-background="new 0 0 56.693 56.693" xml:space="preserve">
<g>
	<path d="M27.088,29.04c-1.115,0-1.115,1.25-1.115,3.016c0,2.266,0.172,3.205,1.115,3.205c1.002,0,1.156-0.939,1.156-3.205
		C28.244,30.29,28.287,29.04,27.088,29.04z"/>
	<path d="M31.668,30.366c0,0.633,0.127,1.43,1.047,1.43c1.605,0,1.35-1.994,1.35-2.988C32.715,28.886,31.668,28.782,31.668,30.366z"
		/>
	<path d="M18.009,28.706c-2.27,0-2.24,1.197-2.24,1.84h4.553C20.322,29.802,20.406,28.706,18.009,28.706z"/>
	<path d="M28.348,5.158c-13.6,0-24.625,11.023-24.625,24.623c0,13.6,11.025,24.625,24.625,24.625
		c13.598,0,24.623-11.025,24.623-24.625C52.971,16.181,41.945,5.158,28.348,5.158z M18.009,35.569c-6.442,0-7.273-1.736-7.273-4.225
		c0-2.15,0.704-4.004,7.273-4.004c1.565,0,2.805,0.115,3.75,0.309c0.576,0.102,1.07,0.219,1.494,0.412
		c1.932,0.746,2.186,2.111,2.059,3.734h-2.059h-7.485c0,0.939,0.042,2.344,2.24,2.344c1.777,0,2.143-0.758,2.143-1.441h1.607h0.041
		h1.453h1.973c-0.041,0.875-0.689,1.547-1.889,2.033c-0.041,0.041-0.041,0.041-0.084,0.041c-0.424,0.193-0.918,0.348-1.453,0.463
		C20.773,35.415,19.49,35.569,18.009,35.569z M28.201,36.819c-1.07,0-1.816-0.309-2.311-1.172h-0.043v0.979h-2.594v-1.508
		l0.064-0.029c0.086-0.002,0.111-0.016,0.188-0.082c0.615-0.258,1.096-0.566,1.434-0.928c0.371-0.393,0.572-0.85,0.598-1.365
		c0.008-0.176-0.125-0.326-0.295-0.334h-0.016v-0.002h-1.973v-0.262v-0.002h2.059c0.162,0,0.297-0.131,0.309-0.293l0,0
		c0.066-0.859,0.031-1.66-0.285-2.355c-0.32-0.709-0.918-1.293-1.965-1.699c-0.039-0.018-0.078-0.035-0.117-0.051v-3.918h2.719
		v4.715h0.045c0.578-0.762,1.238-1.018,2.227-1.018c0.67,0,1.146,0.143,1.521,0.398c-0.34,0.252-0.605,0.578-0.789,0.994
		c-0.195,0.434-0.297,0.957-0.297,1.58v0.008h0.002c0,0.42,0.047,0.824,0.15,1.191c0.043,0.15,0.096,0.301,0.16,0.445
		c0.33,0.746,0.93,1.303,1.883,1.502h0.006v0.002l0.035,0.006C30.795,35.192,30.326,36.819,28.201,36.819z M34.32,33.187
		l-0.127-1.195h-0.045c-0.576,0.9-1.35,1.352-2.551,1.352c-0.252,0-0.463,0-0.662-0.041c-1.41-0.295-1.943-1.467-1.943-2.834
		c0-1.158,0.367-1.916,1.027-2.369c0.959-0.68,2.482-0.721,4.045-0.68v-0.723c0-0.746-0.111-1.314-1.111-1.314
		c-0.986,0-1.029,0.684-1.029,1.391h-2.721c0-1.094,0.365-1.801,1.029-2.188c0.619-0.451,1.523-0.605,2.566-0.605
		c0.303,0,0.588,0.018,0.852,0.041l0.104,0.189l2.732,5.061l0.273,0.506v1.713c0,0.566,0.084,1.131,0.127,1.697H34.32z
		 M41.467,31.19v4.418h-3.596V31.19l-1.111-2.072l-2.736-5.062l-0.648-1.197h3.92l2.566,5.383l2.762-5.383h3.637L41.467,31.19z"/>
</g>
</svg>
